<svg width="102" height="102" viewBox="0 0 102 102" fill="none" xmlns="http://www.w3.org/2000/svg">
<circle cx="51" cy="51" r="48" fill="#D9D9D9" stroke="white" stroke-width="5"/>
<path d="M51 26C44.45 26 39.125 31.325 39.125 37.875C39.125 44.3 44.15 49.5 50.7 49.725C50.9 49.7 51.1 49.7 51.25 49.725C51.3 49.725 51.325 49.725 51.375 49.725C51.4 49.725 51.4 49.725 51.425 49.725C57.825 49.5 62.85 44.3 62.875 37.875C62.875 31.325 57.55 26 51 26Z" fill="#8F8F8F"/>
<path d="M63.7004 56.3742C56.7254 51.7242 45.3504 51.7242 38.3254 56.3742C35.1504 58.4992 33.4004 61.3742 33.4004 64.4492C33.4004 67.5242 35.1504 70.3742 38.3004 72.4742C41.8004 74.8242 46.4004 75.9992 51.0004 75.9992C55.6004 75.9992 60.2004 74.8242 63.7004 72.4742C66.8504 70.3492 68.6004 67.4992 68.6004 64.3992C68.5754 61.3242 66.8504 58.4742 63.7004 56.3742Z" fill="#8F8F8F"/>
</svg>
